# xmcd
#
# Track frame offsets:
#	150
#	15083
#	30792
#	46047
#	60373
#	78892
#	94591
#	108454
#	125336
#	146058
#	162883
#	177388
#	194774
#	208829
#	229837
#	253301
#	268126
#
# Disc length: 3809 seconds
#
# Revision: 0
# Processed by: cddbd v1.5PL3 Copyright (c) Steve Scherf et al.
# Submitted via: dBpowerAMP V4.0
#
DISCID=df0edf11
DTITLE=Norah Jones - Feels Like Home
DYEAR=2004
DGENRE=Country
TTITLE0=a
TTITLE1=s
TTITLE2=d
TTITLE3=f
TTITLE4=g
TTITLE5=h
TTITLE6=j
TTITLE7=Come Away With Me
TTITLE8=k
TTITLE9=l
TTITLE10=q
TTITLE11=w
TTITLE12=e
TTITLE13=r
TTITLE14=t
TTITLE15=y
TTITLE16=u
EXTD=Norah Jones
EXTT0=
EXTT1=
EXTT2=
EXTT3=
EXTT4=
EXTT5=
EXTT6=
EXTT7=
EXTT8=
EXTT9=
EXTT10=
EXTT11=
EXTT12=
EXTT13=
EXTT14=
EXTT15=
EXTT16=
PLAYORDER=
